<svg xmlns="http://www.w3.org/2000/svg" width="40" height="40" viewBox="0 0 40 40">
  <g id="bitcoin" transform="translate(-2674 -8649)">
    <rect id="Rectangle_346" data-name="Rectangle 346" width="40" height="40" rx="9" transform="translate(2674 8649)"/>
    <path id="formkit--bitcoin" d="M10.19,7.47a2.04,2.04,0,0,0,1.13-2.21C11.17,3.7,9.83,3.18,8.13,3.03V1H6.406V3H4.46c-.29,0-.67.03-.95.03,0,0-.05,1.72,0,1.99V7.48h0v3.44c-.02.17,0,.4,0,2.02l.94.05H6.439v2H8.12V12.94c2.21-.13,3.75-.68,3.95-2.76a2.236,2.236,0,0,0-1.88-2.72ZM5.79,4.53h.27c.92-.02,2.8-.07,2.8,1.32C8.86,7.21,6.9,7.18,6,7.16H5.78V4.54ZM9.47,9.92c0,1.5-2.35,1.46-3.43,1.45H5.78V8.48H6.1c1.1-.03,3.36-.08,3.36,1.45Z" transform="translate(2686.211 8661.005)" fill="#fff" fill-rule="evenodd"/>
  </g>
</svg>
