<svg xmlns="http://www.w3.org/2000/svg" width="40" height="40" viewBox="0 0 40 40">
  <g id="github" transform="translate(-2674 -8649)">
    <rect id="Rectangle_346" data-name="Rectangle 346" width="40" height="40" rx="9" transform="translate(2674 8649)"/>
    <path id="mdi--github" d="M9.094,2A7.1,7.1,0,0,0,6.852,15.832c.355.057.468-.163.468-.355v-1.2c-1.965.426-2.383-.951-2.383-.951a1.908,1.908,0,0,0-.787-1.043c-.646-.44.05-.426.05-.426a1.491,1.491,0,0,1,1.085.731,1.524,1.524,0,0,0,2.064.589,1.532,1.532,0,0,1,.447-.951c-1.575-.177-3.228-.787-3.228-3.49A2.747,2.747,0,0,1,5.3,6.816a2.537,2.537,0,0,1,.071-1.873s.6-.192,1.951.724a6.834,6.834,0,0,1,3.547,0c1.355-.915,1.951-.724,1.951-.724a2.537,2.537,0,0,1,.071,1.873,2.747,2.747,0,0,1,.731,1.922c0,2.71-1.66,3.306-3.242,3.483a1.692,1.692,0,0,1,.489,1.312v1.944c0,.192.113.419.475.355A7.1,7.1,0,0,0,9.094,2" transform="translate(2684.906 8660.078)" fill="#fff"/>
  </g>
</svg>
