<svg xmlns="http://www.w3.org/2000/svg" width="40" height="40" viewBox="0 0 40 40">
  <g id="github" transform="translate(-2674 -8649)">
    <rect id="Rectangle_346" data-name="Rectangle 346" width="40" height="40" rx="9" transform="translate(2674 8649)" fill="red"/>
    <path id="mdi--github" d="M9.64,2A7.646,7.646,0,0,0,7.226,16.9c.382.061.5-.176.5-.382V15.226C5.614,15.684,5.163,14.2,5.163,14.2a2.056,2.056,0,0,0-.848-1.123c-.7-.474.053-.458.053-.458a1.606,1.606,0,0,1,1.169.787,1.641,1.641,0,0,0,2.223.634,1.65,1.65,0,0,1,.481-1.024c-1.7-.191-3.476-.848-3.476-3.759a2.959,2.959,0,0,1,.787-2.071,2.733,2.733,0,0,1,.076-2.017s.642-.206,2.1.779a7.361,7.361,0,0,1,3.82,0c1.459-.986,2.1-.779,2.1-.779a2.733,2.733,0,0,1,.076,2.017,2.959,2.959,0,0,1,.787,2.071c0,2.919-1.788,3.56-3.492,3.751a1.823,1.823,0,0,1,.527,1.413v2.093c0,.206.122.451.512.382A7.647,7.647,0,0,0,9.64,2" transform="translate(2684.359 8659.545)" fill="#fff"/>
  </g>
</svg>
